# This file uses centimeters as units for non-parametric coordinates.

mtllib Test_2_2.mtl
g default
v 22.433798 -0.161708 -45.712517
v 22.525509 -0.270506 -45.653965
v 34.120922 -0.161708 -45.712517
v 34.043043 -0.270506 -45.632866
v 22.433798 -0.161708 -27.895599
v 34.112804 -0.161708 -27.895599
v 22.525501 -0.270506 -27.954159
v 34.034984 -0.270506 -27.975323
v 33.907499 1.707922 -45.524879
v 22.602493 1.707922 -45.524879
v 22.433798 1.711233 -45.712517
v 34.120922 1.711233 -45.712517
v 22.602493 1.707922 -28.083454
v 33.899641 1.707922 -28.083454
v 34.112804 1.711233 -27.895599
v 22.433798 1.711233 -27.895599
v 33.899641 -0.041028 -28.083454
v 22.602493 -0.041028 -28.083454
v 22.602493 -0.041028 -45.524879
v 22.602493 1.081033 -37.112812
v 22.602493 1.203699 -37.093384
v 22.602493 1.314357 -37.037003
v 22.602493 1.402176 -36.949181
v 22.602493 1.458559 -36.838524
v 22.602493 1.477987 -36.715858
v 22.602493 1.458559 -36.593193
v 22.602493 1.402176 -36.482536
v 22.602493 1.314357 -36.394714
v 22.602493 1.203699 -36.338333
v 22.602493 1.081033 -36.318905
v 22.602493 0.958367 -36.338333
v 22.602493 0.847709 -36.394714
v 22.602493 0.759890 -36.482536
v 22.602493 0.703507 -36.593193
v 22.602493 0.684079 -36.715858
v 22.602493 0.703507 -36.838524
v 22.602493 0.759890 -36.949181
v 22.602493 0.847709 -37.037003
v 22.602493 0.958367 -37.093384
v 33.907499 -0.041028 -45.524879
v 33.334524 -0.041029 -28.692923
v 23.682369 -0.041029 -28.692923
v 23.682369 -0.041029 -44.915413
v 33.341560 -0.041029 -44.915413
v 22.433798 0.847709 -37.037003
v 22.433798 0.759890 -36.949181
v 22.433798 0.703507 -36.838524
v 22.433798 0.684079 -36.715858
v 22.433798 0.703507 -36.593193
v 22.433798 0.759890 -36.482536
v 22.433798 0.847709 -36.394714
v 22.433798 0.958367 -36.338333
v 22.433798 1.081033 -36.318905
v 22.433798 1.203699 -36.338333
v 22.433798 1.314357 -36.394714
v 22.433798 1.402176 -36.482536
v 22.433798 1.458559 -36.593193
v 22.433798 1.477987 -36.715858
v 22.433798 1.450433 -36.838524
v 22.433798 1.402176 -36.949181
v 22.433798 1.314357 -37.037003
v 22.433798 1.203699 -37.093384
v 22.433798 1.081033 -37.112812
v 22.433798 0.958367 -37.093384
v 33.400871 -0.270506 -28.624952
v 33.334524 -0.178724 -28.692923
v 23.604976 -0.270506 -28.643499
v 23.682369 -0.178724 -28.692923
v 23.604971 -0.270506 -44.964825
v 23.682369 -0.178724 -44.915413
v 33.407955 -0.270506 -44.983318
v 33.341560 -0.178724 -44.915413
vt 0.000000 0.000000
vt 1.000000 0.000000
vt 1.000000 1.000000
vt 0.000000 1.000000
vt 0.000000 0.000000
vt 1.000000 0.000000
vt 1.000000 1.000000
vt 0.000000 1.000000
vt 0.000000 0.000000
vt 1.000000 1.000000
vt 0.000000 1.000000
vt 1.000000 0.000000
vt 1.000000 1.000000
vt 0.000000 1.000000
vt 0.000000 0.000000
vt 1.000000 0.000000
vt 1.000000 1.000000
vt 0.000000 1.000000
vt 0.000000 0.000000
vt 1.000000 0.000000
vt 1.000000 1.000000
vt 0.000000 1.000000
vt 0.000000 0.000000
vt 1.000000 0.000000
vt 1.000000 1.000000
vt 0.000000 1.000000
vt 0.000000 0.000000
vt 1.000000 0.000000
vt 1.000000 1.000000
vt 0.000000 1.000000
vt 0.010539 0.000000
vt 0.989464 0.000000
vt 1.000000 0.011738
vt 0.000000 0.011733
vt 1.000000 0.000000
vt 0.989469 0.009283
vt 0.010544 0.009283
vt 0.014444 0.016413
vt 0.981748 0.016413
vt 1.000000 0.000000
vt 0.000000 0.000000
vt 0.018261 0.000000
vt 0.985566 0.000000
vt 1.000000 0.016382
vt 0.000000 0.016382
vt 1.000000 0.000000
vt 0.000000 0.000000
vt 0.000000 1.000000
vt 1.000000 1.000000
vt 0.000000 0.000000
vt 0.006663 0.000000
vt 0.992148 0.000000
vt 0.000000 0.004473
vt 0.000000 1.000000
vt 0.000000 0.995528
vt 0.006664 1.000000
vt 1.000000 1.000000
vt 0.992153 1.000000
vt 1.000000 0.996714
vt 1.000000 0.000000
vt 1.000000 0.003287
vt 0.516582 0.434013
vt 0.513350 0.350455
vt 0.508314 0.284144
vt 0.501970 0.241569
vt 0.494937 0.226898
vt 0.487904 0.241569
vt 0.481559 0.284144
vt 0.476524 0.350455
vt 0.473292 0.434013
vt 0.472178 0.526638
vt 0.473292 0.619262
vt 0.476524 0.702820
vt 0.481559 0.769132
vt 0.487904 0.811707
vt 0.494937 0.826377
vt 0.501970 0.811707
vt 0.508314 0.769132
vt 0.513350 0.702820
vt 0.516582 0.619262
vt 0.517696 0.526638
vt 1.000000 0.516239
vt 1.000000 0.517329
vt 1.000000 0.516239
vt 1.000000 0.513074
vt 1.000000 0.508145
vt 1.000000 0.501934
vt 1.000000 0.495050
vt 1.000000 0.488165
vt 1.000000 0.481954
vt 1.000000 0.477025
vt 1.000000 0.473861
vt 1.000000 0.472770
vt 1.000000 0.473861
vt 1.000000 0.477025
vt 1.000000 0.481954
vt 1.000000 0.488165
vt 1.000000 0.495050
vt 1.000000 0.501934
vt 1.000000 0.508145
vt 1.000000 0.513074
vt 0.612500 0.564175
vt 0.625000 0.564175
vt 0.625000 0.521816
vt 0.612500 0.521816
vt 0.600000 0.564175
vt 0.612500 0.564175
vt 0.612500 0.521816
vt 0.600000 0.521816
vt 0.587500 0.564175
vt 0.600000 0.564175
vt 0.600000 0.521816
vt 0.587500 0.521816
vt 0.575000 0.564175
vt 0.587500 0.564175
vt 0.587500 0.521816
vt 0.575000 0.521816
vt 0.562500 0.564175
vt 0.575000 0.564175
vt 0.575000 0.521816
vt 0.562500 0.521816
vt 0.550000 0.564175
vt 0.562500 0.564175
vt 0.562500 0.521816
vt 0.550000 0.521816
vt 0.537500 0.564175
vt 0.550000 0.564175
vt 0.550000 0.521816
vt 0.537500 0.521816
vt 0.525000 0.564175
vt 0.537500 0.564175
vt 0.537500 0.521816
vt 0.525000 0.521816
vt 0.512500 0.564175
vt 0.525000 0.564175
vt 0.525000 0.521816
vt 0.512500 0.521816
vt 0.500000 0.564175
vt 0.512500 0.564175
vt 0.512500 0.521816
vt 0.500000 0.521816
vt 0.487500 0.564175
vt 0.500000 0.564175
vt 0.500000 0.521816
vt 0.487500 0.521816
vt 0.475000 0.564175
vt 0.487500 0.564175
vt 0.487500 0.521816
vt 0.475000 0.521816
vt 0.462500 0.564175
vt 0.475000 0.564175
vt 0.475000 0.521816
vt 0.462500 0.521816
vt 0.450000 0.564175
vt 0.462500 0.564175
vt 0.462500 0.521816
vt 0.450000 0.521816
vt 0.437500 0.564175
vt 0.450000 0.564175
vt 0.450000 0.521816
vt 0.437500 0.521816
vt 0.425000 0.564175
vt 0.437500 0.564175
vt 0.437500 0.521816
vt 0.425000 0.521816
vt 0.412500 0.564175
vt 0.425000 0.564175
vt 0.425000 0.521816
vt 0.412500 0.521816
vt 0.412500 0.521816
vt 0.400000 0.521816
vt 0.400000 0.564175
vt 0.412500 0.564175
vt 0.400000 0.521816
vt 0.387500 0.521816
vt 0.387500 0.564175
vt 0.400000 0.564175
vt 0.375000 0.564175
vt 0.387500 0.564175
vt 0.387500 0.521816
vt 0.375000 0.521816
vt 0.000000 1.000000
vt 1.000000 0.399960
vt 1.000000 1.000000
vt 0.000000 0.000000
vt 0.000000 0.399960
vt 1.000000 1.000000
vt 1.000000 0.000000
vt 1.000000 0.000000
vt 0.000000 0.399960
vt 0.000000 1.000000
vt 1.000000 1.000000
vt 1.000000 1.000000
vt 0.000000 1.000000
vt 1.000000 1.000000
vt 0.000000 1.000000
vt 0.000000 1.000000
vt 0.000000 0.399887
vt 1.000000 0.000000
vt 0.000000 0.000000
vt 1.000000 0.399960
vt 0.000000 0.000000
vt 1.000000 0.399960
vt 1.000000 0.000000
vt 0.000000 0.399920
vt 0.000000 0.000000
vn -0.000000 0.473901 0.880578
vn -0.000008 0.474593 0.880205
vn -0.001464 0.590344 0.807150
vn -0.001478 0.591404 0.806374
vn -0.000000 0.473949 -0.880552
vn -0.001468 0.590694 -0.806895
vn -0.000008 0.474643 -0.880179
vn -0.001482 0.591755 -0.806116
vn 0.764589 0.644518 0.000000
vn 0.764589 0.644518 0.000000
vn 0.764622 0.644479 0.000000
vn 0.764622 0.644479 0.000000
vn -0.813224 0.581950 -0.000371
vn -0.813225 0.581950 -0.000371
vn -0.813271 0.581885 -0.000371
vn -0.813271 0.581885 -0.000371
vn 0.000000 -0.999844 -0.017648
vn 0.000000 -0.999844 -0.017648
vn 0.000000 -0.999844 -0.017647
vn 0.000000 -0.999844 -0.017647
vn 0.000000 -0.999845 0.017625
vn 0.000000 -0.999845 0.017628
vn 0.000000 -0.999845 0.017625
vn 0.000000 -0.999845 0.017628
vn -0.019627 -0.999807 0.000000
vn -0.019627 -0.999807 0.000000
vn -0.019627 -0.999807 0.000000
vn -0.019627 -0.999807 0.000000
vn 0.015528 -0.999879 0.000007
vn 0.015521 -0.999880 0.000007
vn 0.015528 -0.999880 0.000007
vn 0.015521 -0.999880 0.000007
vn 0.000000 -0.000000 1.000000
vn 0.000000 -0.000000 1.000000
vn 0.000000 -0.000000 1.000000
vn 0.000000 -0.000000 1.000000
vn -1.000000 0.000000 0.000000
vn -1.000000 0.000005 0.000000
vn -1.000000 0.000000 0.000000
vn -1.000000 -0.000000 0.000000
vn -1.000000 -0.000010 0.000000
vn -1.000000 -0.000000 0.000000
vn -1.000000 0.000010 0.000000
vn -1.000000 -0.000000 0.000000
vn -1.000000 -0.000007 0.000000
vn -1.000000 -0.000000 0.000000
vn -1.000000 0.000004 0.000000
vn -1.000000 -0.000000 0.000000
vn -1.000000 0.000000 0.000000
vn -1.000000 -0.000000 0.000000
vn -1.000000 -0.000000 0.000000
vn -1.000000 -0.000000 0.000000
vn -1.000000 -0.000005 0.000000
vn -1.000000 -0.000000 0.000000
vn -1.000000 0.000008 0.000000
vn -1.000000 -0.000000 0.000000
vn -1.000000 -0.000012 0.000000
vn -1.000000 -0.000000 0.000000
vn -1.000000 0.000014 0.000000
vn -1.000000 -0.000007 0.000000
vn 0.000000 0.000000 -1.000000
vn 0.000000 0.000000 -1.000000
vn 0.000000 0.000000 -1.000000
vn 0.000000 0.000000 -1.000000
vn 1.000000 0.000000 0.000451
vn 1.000000 0.000000 0.000451
vn 1.000000 0.000000 0.000451
vn 1.000000 0.000000 0.000451
vn 0.000000 -1.000000 0.000002
vn 0.000000 -1.000000 0.000002
vn 0.000000 -1.000000 0.000002
vn 0.000000 -1.000000 0.000002
vn -0.000001 -1.000000 0.000000
vn -0.000001 -1.000000 0.000000
vn -0.000001 -1.000000 0.000000
vn -0.000001 -1.000000 0.000000
vn 0.000000 -1.000000 -0.000002
vn 0.000000 -1.000000 -0.000002
vn 0.000000 -1.000000 -0.000002
vn 0.000000 -1.000000 -0.000002
vn 0.000002 -1.000000 0.000000
vn 0.000002 -1.000000 0.000000
vn 0.000002 -1.000000 0.000000
vn 0.000002 -1.000000 0.000000
vn 0.000000 -0.000000 1.000000
vn 0.000000 -0.000000 1.000000
vn 0.000000 -0.000000 1.000000
vn 0.000000 -0.000000 1.000000
vn -1.000000 -0.000000 0.000000
vn -1.000000 -0.000000 0.000000
vn -1.000000 -0.000000 0.000000
vn -1.000000 -0.000000 0.000000
vn 0.000000 0.000000 -1.000000
vn 0.000000 0.000000 -1.000000
vn 0.000000 0.000000 -1.000000
vn 0.000000 0.000000 -1.000000
vn 1.000000 0.000000 0.000434
vn 1.000000 0.000000 0.000434
vn 1.000000 0.000000 0.000434
vn 1.000000 0.000000 0.000434
vn -0.000000 1.000000 -0.000000
vn 0.000000 1.000000 -0.000000
vn 0.000000 1.000000 -0.000000
vn -0.000000 1.000000 -0.000000
vn 0.000000 1.000000 0.000000
vn 0.000000 1.000000 0.000000
vn -0.000000 1.000000 0.000000
vn -0.000000 1.000000 0.000000
vn 0.000000 0.000000 -1.000000
vn 0.000000 0.000000 -1.000000
vn 0.000000 0.000000 -1.000000
vn 0.000000 0.000000 -1.000000
vn 1.000000 0.000000 0.000000
vn 1.000000 0.000000 0.000000
vn 1.000000 0.000006 0.000000
vn 1.000000 -0.000035 0.000000
vn 1.000000 -0.000003 0.000000
vn 1.000000 -0.000010 0.000000
vn 1.000000 0.000002 0.000000
vn 1.000000 0.000000 0.000000
vn 1.000000 -0.000000 0.000000
vn 1.000000 -0.000000 0.000000
vn 1.000000 0.000000 0.000000
vn 1.000000 0.000017 0.000000
vn 1.000000 0.000032 0.000000
vn 1.000000 0.000000 0.000000
vn 1.000000 0.000000 0.000000
vn 1.000000 0.000000 0.000000
vn 1.000000 -0.000002 0.000000
vn 1.000000 -0.000022 0.000000
vn 1.000000 0.000009 0.000000
vn 1.000000 -0.000012 0.000000
vn 1.000000 0.000003 0.000000
vn 1.000000 0.000000 0.000000
vn 1.000000 0.000026 0.000000
vn 1.000000 -0.000002 0.000000
vn 0.000000 -0.000000 1.000000
vn 0.000000 -0.000000 1.000000
vn 0.000000 -0.000000 1.000000
vn 0.000000 -0.000000 1.000000
vn -1.000000 -0.000000 -0.000456
vn -1.000000 -0.000000 -0.000456
vn -1.000000 -0.000000 -0.000456
vn -1.000000 -0.000000 -0.000456
vn -0.000000 1.000000 0.000001
vn -0.031277 0.947024 -0.319636
vn -0.014363 0.999700 -0.019832
vn -0.032543 0.946228 -0.321861
vn -0.000000 0.951055 0.309021
vn -0.000000 0.951056 0.309019
vn -0.000000 0.809018 0.587784
vn -0.000000 0.809020 0.587781
vn -0.000000 0.587783 0.809019
vn -0.000000 0.587788 0.809015
vn -0.000000 0.309009 0.951059
vn -0.000000 0.309011 0.951059
vn 0.000000 -0.000001 1.000000
vn 0.000000 -0.000001 1.000000
vn 0.000000 -0.309008 0.951059
vn 0.000000 -0.309010 0.951059
vn 0.000000 -0.587786 0.809017
vn 0.000000 -0.587790 0.809013
vn 0.000000 -0.809016 0.587786
vn 0.000000 -0.809018 0.587783
vn 0.000000 -0.951056 0.309020
vn 0.000000 -0.951056 0.309018
vn 0.000000 -1.000000 -0.000000
vn 0.000000 -1.000000 0.000000
vn 0.000000 -0.951055 -0.309022
vn 0.000000 -0.951056 -0.309019
vn 0.000000 -0.809018 -0.587785
vn 0.000000 -0.809020 -0.587781
vn 0.000000 -0.587783 -0.809019
vn 0.000000 -0.587788 -0.809015
vn 0.000000 -0.309009 -0.951059
vn 0.000000 -0.309011 -0.951059
vn -0.000000 0.000001 -1.000000
vn -0.000000 0.000001 -1.000000
vn -0.000000 0.309008 -0.951059
vn -0.000000 0.309010 -0.951059
vn -0.000000 0.587790 -0.809013
vn -0.000000 0.587786 -0.809016
vn -0.000000 0.824774 -0.565463
vn -0.013252 0.815210 -0.579014
vn 0.810327 0.585978 0.000351
vn 0.810327 0.585978 0.000351
vn 0.810327 0.585978 0.000351
vn 0.810327 0.585978 0.000351
vn -0.000803 0.538805 0.842430
vn -0.000803 0.538805 0.842430
vn -0.000803 0.538805 0.842430
vn -0.000803 0.538805 0.842430
vn -0.764478 0.644650 0.000000
vn -0.764478 0.644650 0.000000
vn -0.764478 0.644650 0.000000
vn -0.764478 0.644650 0.000000
vn -0.000800 0.538556 -0.842589
vn -0.000800 0.538556 -0.842590
vn -0.000800 0.538556 -0.842589
vn -0.000800 0.538556 -0.842589
s 1
f 1/57/1 2/58/2 3/54/3
f 3/54/3 2/58/2 4/56/4
s 2
f 5/60/5 6/50/6 7/52/7
f 7/52/7 6/50/6 8/51/8
s 3
f 2/59/9 1/57/10 7/61/11
f 7/61/11 1/57/10 5/60/12
s 4
f 8/53/13 6/50/14 4/55/15
f 4/55/15 6/50/14 3/54/16
s 5
f 10/43/17 11/44/18 9/42/19
f 9/42/19 11/44/18 12/45/20
s 6
f 13/38/21 14/39/22 16/41/23
f 16/41/23 14/39/22 15/40/24
s 7
f 16/41/25 11/35/26 13/37/27
f 13/37/27 11/35/26 10/36/28
s 8
f 14/31/29 9/32/30 15/34/31
f 15/34/31 9/32/30 12/33/32
s 9
f 17/27/33 14/30/34 18/28/35
f 18/28/35 14/30/34 13/29/36
s 10
f 18/23/37 35/66/38 19/24/39
f 35/66/38 36/65/40 19/24/39
f 35/66/38 18/23/37 34/67/41
f 36/65/40 37/64/42 19/24/39
f 34/67/41 18/23/37 33/68/43
f 37/64/42 38/63/44 19/24/39
f 33/68/43 18/23/37 32/69/45
f 38/63/44 39/62/46 19/24/39
f 32/69/45 18/23/37 31/70/47
f 39/62/46 20/81/48 19/24/39
f 31/70/47 18/23/37 30/71/49
f 18/23/37 13/26/50 30/71/49
f 19/24/39 20/81/48 10/25/51
f 20/81/48 21/80/52 10/25/51
f 30/71/49 13/26/50 29/72/53
f 21/80/52 22/79/54 10/25/51
f 29/72/53 13/26/50 28/73/55
f 22/79/54 23/78/56 10/25/51
f 28/73/55 13/26/50 27/74/57
f 23/78/56 24/77/58 10/25/51
f 27/74/57 13/26/50 26/75/59
f 24/77/58 25/76/60 10/25/51
f 26/75/59 13/26/50 25/76/60
f 25/76/60 13/26/50 10/25/51
s 11
f 40/19/61 19/20/62 9/22/63
f 9/22/63 19/20/62 10/21/64
s 12
f 17/15/65 40/16/66 14/18/67
f 14/18/67 40/16/66 9/17/68
s 13
f 41/1/69 17/14/70 42/12/71
f 42/12/71 17/14/70 18/13/72
s 14
f 42/9/73 18/11/74 43/6/75
f 43/6/75 18/11/74 19/10/76
s 15
f 44/5/77 43/6/78 40/8/79
f 40/8/79 43/6/78 19/7/80
s off
f 17/4/81 41/1/82 44/2/83 40/3/84
f 68/201/85 66/186/86 41/182/87 42/187/88
f 70/203/89 68/190/90 42/191/91 43/195/92
f 44/194/93 72/205/94 70/203/95 43/195/96
f 41/182/97 66/198/98 72/183/99 44/184/100
s 16
f 65/200/101 67/188/102 7/189/103 8/185/104
f 67/188/102 69/193/105 2/192/106 7/189/103
f 4/197/107 2/192/106 69/193/105 71/196/108
f 71/196/108 65/200/101 8/185/104 4/197/107
s 17
f 16/46/109 15/47/110 5/60/111
f 5/60/111 15/47/110 6/50/112
s 18
f 11/49/113 16/46/114 58/88/115
f 58/88/115 16/46/114 57/89/116
f 57/89/116 16/46/114 56/90/117
f 56/90/117 16/46/114 55/91/118
f 55/91/118 16/46/114 54/92/119
f 54/92/119 16/46/114 53/93/120
f 16/46/114 5/60/121 53/93/120
f 11/49/113 58/88/115 1/57/122
f 58/88/115 59/87/123 1/57/122
f 59/87/123 60/86/124 1/57/122
f 60/86/124 61/85/125 1/57/122
f 61/85/125 62/84/126 1/57/122
f 62/84/126 63/83/127 1/57/122
f 63/83/127 64/82/128 1/57/122
f 53/93/120 5/60/121 52/94/129
f 64/82/128 45/101/130 1/57/122
f 52/94/129 5/60/121 51/95/131
f 45/101/130 46/100/132 1/57/122
f 51/95/131 5/60/121 50/96/133
f 46/100/132 47/99/134 1/57/122
f 50/96/133 5/60/121 49/97/135
f 47/99/134 48/98/136 1/57/122
f 49/97/135 5/60/121 48/98/136
f 48/98/136 5/60/121 1/57/122
s 19
f 12/48/137 11/49/138 3/54/139
f 3/54/139 11/49/138 1/57/140
s 20
f 15/47/141 12/48/142 6/50/143
f 6/50/143 12/48/142 3/54/144
s 21
f 25/105/145 24/104/146 58/102/147
f 58/102/147 24/104/146 59/103/148
f 26/109/149 25/108/145 57/106/150
f 57/106/150 25/108/145 58/107/147
f 27/113/151 26/112/149 56/110/152
f 56/110/152 26/112/149 57/111/150
f 28/117/153 27/116/151 55/114/154
f 55/114/154 27/116/151 56/115/152
f 29/121/155 28/120/153 54/118/156
f 54/118/156 28/120/153 55/119/154
f 30/125/157 29/124/155 53/122/158
f 53/122/158 29/124/155 54/123/156
f 31/129/159 30/128/157 52/126/160
f 52/126/160 30/128/157 53/127/158
f 32/133/161 31/132/159 51/130/162
f 51/130/162 31/132/159 52/131/160
f 33/137/163 32/136/161 50/134/164
f 50/134/164 32/136/161 51/135/162
f 34/141/165 33/140/163 49/138/166
f 49/138/166 33/140/163 50/139/164
f 35/145/167 34/144/165 48/142/168
f 48/142/168 34/144/165 49/143/166
f 36/149/169 35/148/167 47/146/170
f 47/146/170 35/148/167 48/147/168
f 37/153/171 36/152/169 46/150/172
f 46/150/172 36/152/169 47/151/170
f 38/157/173 37/156/171 45/154/174
f 45/154/174 37/156/171 46/155/172
f 39/161/175 38/160/173 64/158/176
f 64/158/176 38/160/173 45/159/174
f 20/165/177 39/164/175 63/162/178
f 63/162/178 39/164/175 64/163/176
f 21/169/179 20/168/177 62/166/180
f 62/166/180 20/168/177 63/167/178
f 62/173/180 61/172/181 21/170/179
f 21/170/179 61/172/181 22/171/182
f 61/177/181 60/176/183 22/174/182
f 22/174/182 60/176/183 23/175/184
f 24/181/146 23/180/184 59/178/148
f 59/178/148 23/180/184 60/179/183
s off
f 66/198/185 65/200/186 71/199/187 72/183/188
f 65/200/189 66/186/190 68/201/191 67/188/192
f 67/202/193 68/190/194 70/203/195 69/204/196
f 69/204/197 70/203/198 72/205/199 71/206/200
